<mxfile host="app.diagrams.net" modified="2023-08-14T04:38:46.654Z" agent="Mozilla/5.0 (X11; Linux x86_64) AppleWebKit/537.36 (KHTML, like Gecko) Chrome/115.0.0.0 Safari/537.36" etag="7NeoEfOrjl9o4_o5jkSq" version="21.6.8" type="device" pages="2">
  <diagram name="Algo-3-Page-1" id="jU1Z9NfvNSKtKm2C2WDh">
    <mxGraphModel dx="1979" dy="1444" grid="1" gridSize="10" guides="1" tooltips="1" connect="1" arrows="1" fold="1" page="1" pageScale="1" pageWidth="1100" pageHeight="850" math="0" shadow="0">
      <root>
        <mxCell id="0" />
        <mxCell id="1" parent="0" />
        <mxCell id="7vTnQSk8eKXKG5L3W_5x-1" value="" style="rounded=0;whiteSpace=wrap;html=1;" vertex="1" parent="1">
          <mxGeometry x="40" y="40" width="200" height="440" as="geometry" />
        </mxCell>
        <mxCell id="7vTnQSk8eKXKG5L3W_5x-2" value="" style="rounded=0;whiteSpace=wrap;html=1;" vertex="1" parent="1">
          <mxGeometry x="240" y="40" width="640" height="440" as="geometry" />
        </mxCell>
        <mxCell id="7vTnQSk8eKXKG5L3W_5x-3" value="STACK" style="text;html=1;strokeColor=none;fillColor=none;align=center;verticalAlign=middle;whiteSpace=wrap;rounded=0;fontFamily=Ubuntu;fontSource=https%3A%2F%2Ffonts.googleapis.com%2Fcss%3Ffamily%3DUbuntu;fontSize=16;fontStyle=1" vertex="1" parent="1">
          <mxGeometry x="100" y="490" width="60" height="30" as="geometry" />
        </mxCell>
        <mxCell id="7vTnQSk8eKXKG5L3W_5x-4" value="HEAP" style="text;html=1;strokeColor=none;fillColor=none;align=center;verticalAlign=middle;whiteSpace=wrap;rounded=0;fontFamily=Ubuntu;fontSource=https%3A%2F%2Ffonts.googleapis.com%2Fcss%3Ffamily%3DUbuntu;fontSize=16;fontStyle=1" vertex="1" parent="1">
          <mxGeometry x="510" y="490" width="60" height="30" as="geometry" />
        </mxCell>
        <mxCell id="7vTnQSk8eKXKG5L3W_5x-5" value="main thread" style="shape=hexagon;perimeter=hexagonPerimeter2;whiteSpace=wrap;html=1;fixedSize=1;fontFamily=Ubuntu;fontSource=https%3A%2F%2Ffonts.googleapis.com%2Fcss%3Ffamily%3DUbuntu;fontSize=16;" vertex="1" parent="1">
          <mxGeometry x="90" y="-20" width="120" height="50" as="geometry" />
        </mxCell>
        <mxCell id="7vTnQSk8eKXKG5L3W_5x-6" value="" style="rounded=0;whiteSpace=wrap;html=1;fillColor=#d5e8d4;strokeColor=#82b366;strokeWidth=7;" vertex="1" parent="1">
          <mxGeometry x="40" y="270" width="200" height="210" as="geometry" />
        </mxCell>
        <mxCell id="7vTnQSk8eKXKG5L3W_5x-7" value="main()" style="text;html=1;strokeColor=none;fillColor=none;align=center;verticalAlign=middle;whiteSpace=wrap;rounded=0;fontFamily=Ubuntu;fontSource=https%3A%2F%2Ffonts.googleapis.com%2Fcss%3Ffamily%3DUbuntu;fontSize=16;rotation=-90;" vertex="1" parent="1">
          <mxGeometry x="-20" y="360" width="60" height="30" as="geometry" />
        </mxCell>
        <mxCell id="7vTnQSk8eKXKG5L3W_5x-20" style="edgeStyle=orthogonalEdgeStyle;rounded=0;orthogonalLoop=1;jettySize=auto;html=1;entryX=0;entryY=0.5;entryDx=0;entryDy=0;" edge="1" parent="1" source="7vTnQSk8eKXKG5L3W_5x-8" target="7vTnQSk8eKXKG5L3W_5x-30">
          <mxGeometry relative="1" as="geometry" />
        </mxCell>
        <mxCell id="7vTnQSk8eKXKG5L3W_5x-8" value="int[] nums = 0xAF11" style="rounded=0;whiteSpace=wrap;html=1;fontFamily=Ubuntu;fontSource=https%3A%2F%2Ffonts.googleapis.com%2Fcss%3Ffamily%3DUbuntu;fontSize=16;" vertex="1" parent="1">
          <mxGeometry x="40" y="270" width="200" height="30" as="geometry" />
        </mxCell>
        <mxCell id="7vTnQSk8eKXKG5L3W_5x-10" value="..." style="rounded=0;whiteSpace=wrap;html=1;fontFamily=Ubuntu;fontSource=https%3A%2F%2Ffonts.googleapis.com%2Fcss%3Ffamily%3DUbuntu;fontSize=16;" vertex="1" parent="1">
          <mxGeometry x="40" y="330" width="200" height="30" as="geometry" />
        </mxCell>
        <mxCell id="7vTnQSk8eKXKG5L3W_5x-19" value="" style="group" vertex="1" connectable="0" parent="1">
          <mxGeometry x="590" y="160" width="200" height="130" as="geometry" />
        </mxCell>
        <mxCell id="7vTnQSk8eKXKG5L3W_5x-11" value="10" style="rounded=0;whiteSpace=wrap;html=1;fontFamily=Ubuntu;fontSource=https%3A%2F%2Ffonts.googleapis.com%2Fcss%3Ffamily%3DUbuntu;fontSize=17;" vertex="1" parent="7vTnQSk8eKXKG5L3W_5x-19">
          <mxGeometry y="30" width="40" height="40" as="geometry" />
        </mxCell>
        <mxCell id="7vTnQSk8eKXKG5L3W_5x-12" value="20" style="rounded=0;whiteSpace=wrap;html=1;fontFamily=Ubuntu;fontSource=https%3A%2F%2Ffonts.googleapis.com%2Fcss%3Ffamily%3DUbuntu;fontSize=17;" vertex="1" parent="7vTnQSk8eKXKG5L3W_5x-19">
          <mxGeometry x="40" y="30" width="40" height="40" as="geometry" />
        </mxCell>
        <mxCell id="7vTnQSk8eKXKG5L3W_5x-13" value="30" style="rounded=0;whiteSpace=wrap;html=1;fontFamily=Ubuntu;fontSource=https%3A%2F%2Ffonts.googleapis.com%2Fcss%3Ffamily%3DUbuntu;fontSize=17;" vertex="1" parent="7vTnQSk8eKXKG5L3W_5x-19">
          <mxGeometry x="80" y="30" width="40" height="40" as="geometry" />
        </mxCell>
        <mxCell id="7vTnQSk8eKXKG5L3W_5x-14" value="40" style="rounded=0;whiteSpace=wrap;html=1;fontFamily=Ubuntu;fontSource=https%3A%2F%2Ffonts.googleapis.com%2Fcss%3Ffamily%3DUbuntu;fontSize=17;" vertex="1" parent="7vTnQSk8eKXKG5L3W_5x-19">
          <mxGeometry x="120" y="30" width="40" height="40" as="geometry" />
        </mxCell>
        <mxCell id="7vTnQSk8eKXKG5L3W_5x-15" value="50" style="rounded=0;whiteSpace=wrap;html=1;fontFamily=Ubuntu;fontSource=https%3A%2F%2Ffonts.googleapis.com%2Fcss%3Ffamily%3DUbuntu;fontSize=17;" vertex="1" parent="7vTnQSk8eKXKG5L3W_5x-19">
          <mxGeometry x="160" y="30" width="40" height="40" as="geometry" />
        </mxCell>
        <mxCell id="7vTnQSk8eKXKG5L3W_5x-16" value="int length = 5" style="rounded=0;whiteSpace=wrap;html=1;fontFamily=Ubuntu;fontSource=https%3A%2F%2Ffonts.googleapis.com%2Fcss%3Ffamily%3DUbuntu;fontSize=16;" vertex="1" parent="7vTnQSk8eKXKG5L3W_5x-19">
          <mxGeometry y="70" width="200" height="30" as="geometry" />
        </mxCell>
        <mxCell id="7vTnQSk8eKXKG5L3W_5x-17" value="..." style="rounded=0;whiteSpace=wrap;html=1;fontFamily=Ubuntu;fontSource=https%3A%2F%2Ffonts.googleapis.com%2Fcss%3Ffamily%3DUbuntu;fontSize=16;" vertex="1" parent="7vTnQSk8eKXKG5L3W_5x-19">
          <mxGeometry y="100" width="200" height="30" as="geometry" />
        </mxCell>
        <mxCell id="7vTnQSk8eKXKG5L3W_5x-18" value="0xAF10" style="rounded=0;whiteSpace=wrap;html=1;fontFamily=Ubuntu;fontSource=https%3A%2F%2Ffonts.googleapis.com%2Fcss%3Ffamily%3DUbuntu;fontSize=16;fillColor=#dae8fc;strokeColor=#6c8ebf;" vertex="1" parent="7vTnQSk8eKXKG5L3W_5x-19">
          <mxGeometry width="200" height="30" as="geometry" />
        </mxCell>
        <mxCell id="7vTnQSk8eKXKG5L3W_5x-31" style="edgeStyle=orthogonalEdgeStyle;rounded=0;orthogonalLoop=1;jettySize=auto;html=1;entryX=0;entryY=0.5;entryDx=0;entryDy=0;" edge="1" parent="1" source="7vTnQSk8eKXKG5L3W_5x-21" target="7vTnQSk8eKXKG5L3W_5x-30">
          <mxGeometry relative="1" as="geometry" />
        </mxCell>
        <mxCell id="7vTnQSk8eKXKG5L3W_5x-21" value="int[] temp = 0xAF11" style="rounded=0;whiteSpace=wrap;html=1;fontFamily=Ubuntu;fontSource=https%3A%2F%2Ffonts.googleapis.com%2Fcss%3Ffamily%3DUbuntu;fontSize=16;" vertex="1" parent="1">
          <mxGeometry x="40" y="300" width="200" height="30" as="geometry" />
        </mxCell>
        <mxCell id="7vTnQSk8eKXKG5L3W_5x-22" value="" style="group" vertex="1" connectable="0" parent="1">
          <mxGeometry x="590" y="300" width="200" height="130" as="geometry" />
        </mxCell>
        <mxCell id="7vTnQSk8eKXKG5L3W_5x-23" value="50" style="rounded=0;whiteSpace=wrap;html=1;fontFamily=Ubuntu;fontSource=https%3A%2F%2Ffonts.googleapis.com%2Fcss%3Ffamily%3DUbuntu;fontSize=17;" vertex="1" parent="7vTnQSk8eKXKG5L3W_5x-22">
          <mxGeometry y="30" width="40" height="40" as="geometry" />
        </mxCell>
        <mxCell id="7vTnQSk8eKXKG5L3W_5x-24" value="40" style="rounded=0;whiteSpace=wrap;html=1;fontFamily=Ubuntu;fontSource=https%3A%2F%2Ffonts.googleapis.com%2Fcss%3Ffamily%3DUbuntu;fontSize=17;" vertex="1" parent="7vTnQSk8eKXKG5L3W_5x-22">
          <mxGeometry x="40" y="30" width="40" height="40" as="geometry" />
        </mxCell>
        <mxCell id="7vTnQSk8eKXKG5L3W_5x-25" value="30" style="rounded=0;whiteSpace=wrap;html=1;fontFamily=Ubuntu;fontSource=https%3A%2F%2Ffonts.googleapis.com%2Fcss%3Ffamily%3DUbuntu;fontSize=17;" vertex="1" parent="7vTnQSk8eKXKG5L3W_5x-22">
          <mxGeometry x="80" y="30" width="40" height="40" as="geometry" />
        </mxCell>
        <mxCell id="7vTnQSk8eKXKG5L3W_5x-26" value="20" style="rounded=0;whiteSpace=wrap;html=1;fontFamily=Ubuntu;fontSource=https%3A%2F%2Ffonts.googleapis.com%2Fcss%3Ffamily%3DUbuntu;fontSize=17;" vertex="1" parent="7vTnQSk8eKXKG5L3W_5x-22">
          <mxGeometry x="120" y="30" width="40" height="40" as="geometry" />
        </mxCell>
        <mxCell id="7vTnQSk8eKXKG5L3W_5x-27" value="10" style="rounded=0;whiteSpace=wrap;html=1;fontFamily=Ubuntu;fontSource=https%3A%2F%2Ffonts.googleapis.com%2Fcss%3Ffamily%3DUbuntu;fontSize=17;" vertex="1" parent="7vTnQSk8eKXKG5L3W_5x-22">
          <mxGeometry x="160" y="30" width="40" height="40" as="geometry" />
        </mxCell>
        <mxCell id="7vTnQSk8eKXKG5L3W_5x-28" value="int length = 5" style="rounded=0;whiteSpace=wrap;html=1;fontFamily=Ubuntu;fontSource=https%3A%2F%2Ffonts.googleapis.com%2Fcss%3Ffamily%3DUbuntu;fontSize=16;" vertex="1" parent="7vTnQSk8eKXKG5L3W_5x-22">
          <mxGeometry y="70" width="200" height="30" as="geometry" />
        </mxCell>
        <mxCell id="7vTnQSk8eKXKG5L3W_5x-29" value="..." style="rounded=0;whiteSpace=wrap;html=1;fontFamily=Ubuntu;fontSource=https%3A%2F%2Ffonts.googleapis.com%2Fcss%3Ffamily%3DUbuntu;fontSize=16;" vertex="1" parent="7vTnQSk8eKXKG5L3W_5x-22">
          <mxGeometry y="100" width="200" height="30" as="geometry" />
        </mxCell>
        <mxCell id="7vTnQSk8eKXKG5L3W_5x-30" value="0xAF11" style="rounded=0;whiteSpace=wrap;html=1;fontFamily=Ubuntu;fontSource=https%3A%2F%2Ffonts.googleapis.com%2Fcss%3Ffamily%3DUbuntu;fontSize=16;fillColor=#dae8fc;strokeColor=#6c8ebf;" vertex="1" parent="7vTnQSk8eKXKG5L3W_5x-22">
          <mxGeometry width="200" height="30" as="geometry" />
        </mxCell>
        <mxCell id="7vTnQSk8eKXKG5L3W_5x-32" style="rounded=0;orthogonalLoop=1;jettySize=auto;html=1;entryX=0.085;entryY=1.233;entryDx=0;entryDy=0;entryPerimeter=0;exitX=0.875;exitY=-0.167;exitDx=0;exitDy=0;exitPerimeter=0;" edge="1" parent="1" source="7vTnQSk8eKXKG5L3W_5x-16" target="7vTnQSk8eKXKG5L3W_5x-30">
          <mxGeometry relative="1" as="geometry" />
        </mxCell>
        <mxCell id="7vTnQSk8eKXKG5L3W_5x-33" style="rounded=0;orthogonalLoop=1;jettySize=auto;html=1;exitX=0.5;exitY=1;exitDx=0;exitDy=0;" edge="1" parent="1" source="7vTnQSk8eKXKG5L3W_5x-14" target="7vTnQSk8eKXKG5L3W_5x-24">
          <mxGeometry relative="1" as="geometry" />
        </mxCell>
        <mxCell id="7vTnQSk8eKXKG5L3W_5x-34" style="edgeStyle=orthogonalEdgeStyle;rounded=0;orthogonalLoop=1;jettySize=auto;html=1;" edge="1" parent="1" source="7vTnQSk8eKXKG5L3W_5x-13" target="7vTnQSk8eKXKG5L3W_5x-25">
          <mxGeometry relative="1" as="geometry" />
        </mxCell>
        <mxCell id="7vTnQSk8eKXKG5L3W_5x-35" style="rounded=0;orthogonalLoop=1;jettySize=auto;html=1;entryX=0.705;entryY=1.2;entryDx=0;entryDy=0;entryPerimeter=0;" edge="1" parent="1" source="7vTnQSk8eKXKG5L3W_5x-12" target="7vTnQSk8eKXKG5L3W_5x-30">
          <mxGeometry relative="1" as="geometry" />
        </mxCell>
        <mxCell id="7vTnQSk8eKXKG5L3W_5x-36" style="rounded=0;orthogonalLoop=1;jettySize=auto;html=1;entryX=0.87;entryY=1.067;entryDx=0;entryDy=0;entryPerimeter=0;" edge="1" parent="1" source="7vTnQSk8eKXKG5L3W_5x-11" target="7vTnQSk8eKXKG5L3W_5x-30">
          <mxGeometry relative="1" as="geometry" />
        </mxCell>
      </root>
    </mxGraphModel>
  </diagram>
  <diagram name="Algo-4-Page-1" id="PcduTEjPiw6o2hZlFLkG">
    <mxGraphModel dx="1979" dy="1444" grid="1" gridSize="10" guides="1" tooltips="1" connect="1" arrows="1" fold="1" page="1" pageScale="1" pageWidth="1100" pageHeight="850" math="0" shadow="0">
      <root>
        <mxCell id="cadEunyeZD092ay3zfnR-0" />
        <mxCell id="cadEunyeZD092ay3zfnR-1" parent="cadEunyeZD092ay3zfnR-0" />
        <mxCell id="cadEunyeZD092ay3zfnR-2" value="" style="rounded=0;whiteSpace=wrap;html=1;" vertex="1" parent="cadEunyeZD092ay3zfnR-1">
          <mxGeometry x="40" y="40" width="200" height="440" as="geometry" />
        </mxCell>
        <mxCell id="cadEunyeZD092ay3zfnR-3" value="" style="rounded=0;whiteSpace=wrap;html=1;" vertex="1" parent="cadEunyeZD092ay3zfnR-1">
          <mxGeometry x="240" y="40" width="640" height="440" as="geometry" />
        </mxCell>
        <mxCell id="cadEunyeZD092ay3zfnR-4" value="STACK" style="text;html=1;strokeColor=none;fillColor=none;align=center;verticalAlign=middle;whiteSpace=wrap;rounded=0;fontFamily=Ubuntu;fontSource=https%3A%2F%2Ffonts.googleapis.com%2Fcss%3Ffamily%3DUbuntu;fontSize=16;fontStyle=1" vertex="1" parent="cadEunyeZD092ay3zfnR-1">
          <mxGeometry x="100" y="490" width="60" height="30" as="geometry" />
        </mxCell>
        <mxCell id="cadEunyeZD092ay3zfnR-5" value="HEAP" style="text;html=1;strokeColor=none;fillColor=none;align=center;verticalAlign=middle;whiteSpace=wrap;rounded=0;fontFamily=Ubuntu;fontSource=https%3A%2F%2Ffonts.googleapis.com%2Fcss%3Ffamily%3DUbuntu;fontSize=16;fontStyle=1" vertex="1" parent="cadEunyeZD092ay3zfnR-1">
          <mxGeometry x="510" y="490" width="60" height="30" as="geometry" />
        </mxCell>
        <mxCell id="cadEunyeZD092ay3zfnR-6" value="main thread" style="shape=hexagon;perimeter=hexagonPerimeter2;whiteSpace=wrap;html=1;fixedSize=1;fontFamily=Ubuntu;fontSource=https%3A%2F%2Ffonts.googleapis.com%2Fcss%3Ffamily%3DUbuntu;fontSize=16;" vertex="1" parent="cadEunyeZD092ay3zfnR-1">
          <mxGeometry x="90" y="-20" width="120" height="50" as="geometry" />
        </mxCell>
        <mxCell id="cadEunyeZD092ay3zfnR-7" value="" style="rounded=0;whiteSpace=wrap;html=1;fillColor=#d5e8d4;strokeColor=#82b366;strokeWidth=7;" vertex="1" parent="cadEunyeZD092ay3zfnR-1">
          <mxGeometry x="40" y="270" width="200" height="210" as="geometry" />
        </mxCell>
        <mxCell id="cadEunyeZD092ay3zfnR-8" value="main()" style="text;html=1;strokeColor=none;fillColor=none;align=center;verticalAlign=middle;whiteSpace=wrap;rounded=0;fontFamily=Ubuntu;fontSource=https%3A%2F%2Ffonts.googleapis.com%2Fcss%3Ffamily%3DUbuntu;fontSize=16;rotation=-90;" vertex="1" parent="cadEunyeZD092ay3zfnR-1">
          <mxGeometry x="-20" y="360" width="60" height="30" as="geometry" />
        </mxCell>
        <mxCell id="6S4-5ZtJXRdFeqEw530z-0" style="edgeStyle=orthogonalEdgeStyle;rounded=0;orthogonalLoop=1;jettySize=auto;html=1;entryX=0;entryY=0.5;entryDx=0;entryDy=0;" edge="1" parent="cadEunyeZD092ay3zfnR-1" source="cadEunyeZD092ay3zfnR-10" target="cadEunyeZD092ay3zfnR-20">
          <mxGeometry relative="1" as="geometry" />
        </mxCell>
        <mxCell id="cadEunyeZD092ay3zfnR-10" value="int[] nums = 0xAF11" style="rounded=0;whiteSpace=wrap;html=1;fontFamily=Ubuntu;fontSource=https%3A%2F%2Ffonts.googleapis.com%2Fcss%3Ffamily%3DUbuntu;fontSize=16;" vertex="1" parent="cadEunyeZD092ay3zfnR-1">
          <mxGeometry x="40" y="270" width="200" height="30" as="geometry" />
        </mxCell>
        <mxCell id="cadEunyeZD092ay3zfnR-11" value="..." style="rounded=0;whiteSpace=wrap;html=1;fontFamily=Ubuntu;fontSource=https%3A%2F%2Ffonts.googleapis.com%2Fcss%3Ffamily%3DUbuntu;fontSize=16;" vertex="1" parent="cadEunyeZD092ay3zfnR-1">
          <mxGeometry x="40" y="330" width="200" height="30" as="geometry" />
        </mxCell>
        <mxCell id="cadEunyeZD092ay3zfnR-12" value="" style="group" vertex="1" connectable="0" parent="cadEunyeZD092ay3zfnR-1">
          <mxGeometry x="590" y="160" width="200" height="130" as="geometry" />
        </mxCell>
        <mxCell id="cadEunyeZD092ay3zfnR-13" value="50" style="rounded=0;whiteSpace=wrap;html=1;fontFamily=Ubuntu;fontSource=https%3A%2F%2Ffonts.googleapis.com%2Fcss%3Ffamily%3DUbuntu;fontSize=17;" vertex="1" parent="cadEunyeZD092ay3zfnR-12">
          <mxGeometry y="30" width="40" height="40" as="geometry" />
        </mxCell>
        <mxCell id="cadEunyeZD092ay3zfnR-14" value="40" style="rounded=0;whiteSpace=wrap;html=1;fontFamily=Ubuntu;fontSource=https%3A%2F%2Ffonts.googleapis.com%2Fcss%3Ffamily%3DUbuntu;fontSize=17;" vertex="1" parent="cadEunyeZD092ay3zfnR-12">
          <mxGeometry x="40" y="30" width="40" height="40" as="geometry" />
        </mxCell>
        <mxCell id="cadEunyeZD092ay3zfnR-15" value="30" style="rounded=0;whiteSpace=wrap;html=1;fontFamily=Ubuntu;fontSource=https%3A%2F%2Ffonts.googleapis.com%2Fcss%3Ffamily%3DUbuntu;fontSize=17;" vertex="1" parent="cadEunyeZD092ay3zfnR-12">
          <mxGeometry x="80" y="30" width="40" height="40" as="geometry" />
        </mxCell>
        <mxCell id="cadEunyeZD092ay3zfnR-16" value="20" style="rounded=0;whiteSpace=wrap;html=1;fontFamily=Ubuntu;fontSource=https%3A%2F%2Ffonts.googleapis.com%2Fcss%3Ffamily%3DUbuntu;fontSize=17;" vertex="1" parent="cadEunyeZD092ay3zfnR-12">
          <mxGeometry x="120" y="30" width="40" height="40" as="geometry" />
        </mxCell>
        <mxCell id="cadEunyeZD092ay3zfnR-17" value="10" style="rounded=0;whiteSpace=wrap;html=1;fontFamily=Ubuntu;fontSource=https%3A%2F%2Ffonts.googleapis.com%2Fcss%3Ffamily%3DUbuntu;fontSize=17;" vertex="1" parent="cadEunyeZD092ay3zfnR-12">
          <mxGeometry x="160" y="30" width="40" height="40" as="geometry" />
        </mxCell>
        <mxCell id="cadEunyeZD092ay3zfnR-18" value="int length = 5" style="rounded=0;whiteSpace=wrap;html=1;fontFamily=Ubuntu;fontSource=https%3A%2F%2Ffonts.googleapis.com%2Fcss%3Ffamily%3DUbuntu;fontSize=16;" vertex="1" parent="cadEunyeZD092ay3zfnR-12">
          <mxGeometry y="70" width="200" height="30" as="geometry" />
        </mxCell>
        <mxCell id="cadEunyeZD092ay3zfnR-19" value="..." style="rounded=0;whiteSpace=wrap;html=1;fontFamily=Ubuntu;fontSource=https%3A%2F%2Ffonts.googleapis.com%2Fcss%3Ffamily%3DUbuntu;fontSize=16;" vertex="1" parent="cadEunyeZD092ay3zfnR-12">
          <mxGeometry y="100" width="200" height="30" as="geometry" />
        </mxCell>
        <mxCell id="cadEunyeZD092ay3zfnR-20" value="0xAF10" style="rounded=0;whiteSpace=wrap;html=1;fontFamily=Ubuntu;fontSource=https%3A%2F%2Ffonts.googleapis.com%2Fcss%3Ffamily%3DUbuntu;fontSize=16;fillColor=#dae8fc;strokeColor=#6c8ebf;" vertex="1" parent="cadEunyeZD092ay3zfnR-12">
          <mxGeometry width="200" height="30" as="geometry" />
        </mxCell>
        <mxCell id="6S4-5ZtJXRdFeqEw530z-1" value="int temp = 20" style="rounded=0;whiteSpace=wrap;html=1;fontFamily=Ubuntu;fontSource=https%3A%2F%2Ffonts.googleapis.com%2Fcss%3Ffamily%3DUbuntu;fontSize=16;" vertex="1" parent="cadEunyeZD092ay3zfnR-1">
          <mxGeometry x="40" y="300" width="200" height="30" as="geometry" />
        </mxCell>
      </root>
    </mxGraphModel>
  </diagram>
</mxfile>
